<svg width="1420" height="1420" viewBox="0 0 1420 1420" version="1.1" xmlns="http://www.w3.org/2000/svg" xmlns:xlink="http://www.w3.org/1999/xlink">
<title>Radiuses</title>
<desc>Created using Figma</desc>
<g id="Canvas" transform="translate(-8529 1005)">
<g id="Radiuses">
<g id="Ellipse">
<mask id="mask0_outline_ins">
<use xlink:href="#path0_fill" fill="white" transform="translate(9229 -305)"/>
</mask>
<g mask="url(#mask0_outline_ins)">
<use xlink:href="#path1_stroke_2x" transform="translate(9229 -305)" fill="#FDF2FF" fill-opacity="0.11"/>
</g>
</g>
<g id="Ellipse">
<mask id="mask1_outline_ins">
<use xlink:href="#path2_fill" fill="white" transform="translate(9209 -325)"/>
</mask>
<g mask="url(#mask1_outline_ins)">
<use xlink:href="#path3_stroke_2x" transform="translate(9209 -325)" fill="#FDF2FF" fill-opacity="0.11"/>
</g>
</g>
<g id="Ellipse">
<mask id="mask2_outline_ins">
<use xlink:href="#path4_fill" fill="white" transform="translate(9189 -345)"/>
</mask>
<g mask="url(#mask2_outline_ins)">
<use xlink:href="#path5_stroke_2x" transform="translate(9189 -345)" fill="#FDF2FF" fill-opacity="0.11"/>
</g>
</g>
<g id="Ellipse">
<mask id="mask3_outline_ins">
<use xlink:href="#path6_fill" fill="white" transform="translate(9169 -365)"/>
</mask>
<g mask="url(#mask3_outline_ins)">
<use xlink:href="#path7_stroke_2x" transform="translate(9169 -365)" fill="#FDF2FF" fill-opacity="0.11"/>
</g>
</g>
<g id="Ellipse">
<mask id="mask4_outline_ins">
<use xlink:href="#path8_fill" fill="white" transform="translate(9149 -385)"/>
</mask>
<g mask="url(#mask4_outline_ins)">
<use xlink:href="#path9_stroke_2x" transform="translate(9149 -385)" fill="#FDF2FF" fill-opacity="0.11"/>
</g>
</g>
<g id="Ellipse">
<mask id="mask5_outline_ins">
<use xlink:href="#path10_fill" fill="white" transform="translate(9129 -405)"/>
</mask>
<g mask="url(#mask5_outline_ins)">
<use xlink:href="#path11_stroke_2x" transform="translate(9129 -405)" fill="#FDF2FF" fill-opacity="0.11"/>
</g>
</g>
<g id="Ellipse">
<mask id="mask6_outline_ins">
<use xlink:href="#path12_fill" fill="white" transform="translate(9109 -425)"/>
</mask>
<g mask="url(#mask6_outline_ins)">
<use xlink:href="#path13_stroke_2x" transform="translate(9109 -425)" fill="#FDF2FF" fill-opacity="0.11"/>
</g>
</g>
<g id="Ellipse">
<mask id="mask7_outline_ins">
<use xlink:href="#path14_fill" fill="white" transform="translate(9089 -445)"/>
</mask>
<g mask="url(#mask7_outline_ins)">
<use xlink:href="#path15_stroke_2x" transform="translate(9089 -445)" fill="#FDF2FF" fill-opacity="0.11"/>
</g>
</g>
<g id="Ellipse">
<mask id="mask8_outline_ins">
<use xlink:href="#path16_fill" fill="white" transform="translate(9069 -465)"/>
</mask>
<g mask="url(#mask8_outline_ins)">
<use xlink:href="#path17_stroke_2x" transform="translate(9069 -465)" fill="#FDF2FF" fill-opacity="0.11"/>
</g>
</g>
<g id="Ellipse">
<mask id="mask9_outline_ins">
<use xlink:href="#path18_fill" fill="white" transform="translate(9049 -485)"/>
</mask>
<g mask="url(#mask9_outline_ins)">
<use xlink:href="#path19_stroke_2x" transform="translate(9049 -485)" fill="#FDF2FF" fill-opacity="0.11"/>
</g>
</g>
<g id="Ellipse">
<mask id="mask10_outline_ins">
<use xlink:href="#path20_fill" fill="white" transform="translate(9029 -505)"/>
</mask>
<g mask="url(#mask10_outline_ins)">
<use xlink:href="#path21_stroke_2x" transform="translate(9029 -505)" fill="#FDF2FF" fill-opacity="0.11"/>
</g>
</g>
<g id="Ellipse">
<mask id="mask11_outline_ins">
<use xlink:href="#path22_fill" fill="white" transform="translate(9009 -525)"/>
</mask>
<g mask="url(#mask11_outline_ins)">
<use xlink:href="#path23_stroke_2x" transform="translate(9009 -525)" fill="#FDF2FF" fill-opacity="0.11"/>
</g>
</g>
<g id="Ellipse">
<mask id="mask12_outline_ins">
<use xlink:href="#path24_fill" fill="white" transform="translate(8989 -545)"/>
</mask>
<g mask="url(#mask12_outline_ins)">
<use xlink:href="#path25_stroke_2x" transform="translate(8989 -545)" fill="#FDF2FF" fill-opacity="0.11"/>
</g>
</g>
<g id="Ellipse">
<mask id="mask13_outline_ins">
<use xlink:href="#path26_fill" fill="white" transform="translate(8969 -565)"/>
</mask>
<g mask="url(#mask13_outline_ins)">
<use xlink:href="#path27_stroke_2x" transform="translate(8969 -565)" fill="#FDF2FF" fill-opacity="0.11"/>
</g>
</g>
<g id="Ellipse">
<mask id="mask14_outline_ins">
<use xlink:href="#path28_fill" fill="white" transform="translate(8949 -585)"/>
</mask>
<g mask="url(#mask14_outline_ins)">
<use xlink:href="#path29_stroke_2x" transform="translate(8949 -585)" fill="#FDF2FF" fill-opacity="0.11"/>
</g>
</g>
<g id="Ellipse">
<mask id="mask15_outline_ins">
<use xlink:href="#path30_fill" fill="white" transform="translate(8929 -605)"/>
</mask>
<g mask="url(#mask15_outline_ins)">
<use xlink:href="#path31_stroke_2x" transform="translate(8929 -605)" fill="#FDF2FF" fill-opacity="0.11"/>
</g>
</g>
<g id="Ellipse">
<mask id="mask16_outline_ins">
<use xlink:href="#path32_fill" fill="white" transform="translate(8909 -625)"/>
</mask>
<g mask="url(#mask16_outline_ins)">
<use xlink:href="#path33_stroke_2x" transform="translate(8909 -625)" fill="#FDF2FF" fill-opacity="0.11"/>
</g>
</g>
<g id="Ellipse">
<mask id="mask17_outline_ins">
<use xlink:href="#path34_fill" fill="white" transform="translate(8889 -645)"/>
</mask>
<g mask="url(#mask17_outline_ins)">
<use xlink:href="#path35_stroke_2x" transform="translate(8889 -645)" fill="#FDF2FF" fill-opacity="0.11"/>
</g>
</g>
<g id="Ellipse">
<mask id="mask18_outline_ins">
<use xlink:href="#path36_fill" fill="white" transform="translate(8869 -665)"/>
</mask>
<g mask="url(#mask18_outline_ins)">
<use xlink:href="#path37_stroke_2x" transform="translate(8869 -665)" fill="#FDF2FF" fill-opacity="0.11"/>
</g>
</g>
<g id="Ellipse">
<mask id="mask19_outline_ins">
<use xlink:href="#path38_fill" fill="white" transform="translate(8849 -685)"/>
</mask>
<g mask="url(#mask19_outline_ins)">
<use xlink:href="#path39_stroke_2x" transform="translate(8849 -685)" fill="#FDF2FF" fill-opacity="0.11"/>
</g>
</g>
<g id="Ellipse">
<mask id="mask20_outline_ins">
<use xlink:href="#path40_fill" fill="white" transform="translate(8829 -705)"/>
</mask>
<g mask="url(#mask20_outline_ins)">
<use xlink:href="#path41_stroke_2x" transform="translate(8829 -705)" fill="#FDF2FF" fill-opacity="0.11"/>
</g>
</g>
<g id="Ellipse">
<mask id="mask21_outline_ins">
<use xlink:href="#path42_fill" fill="white" transform="translate(8809 -725)"/>
</mask>
<g mask="url(#mask21_outline_ins)">
<use xlink:href="#path43_stroke_2x" transform="translate(8809 -725)" fill="#FDF2FF" fill-opacity="0.11"/>
</g>
</g>
<g id="Ellipse">
<mask id="mask22_outline_ins">
<use xlink:href="#path44_fill" fill="white" transform="translate(8789 -745)"/>
</mask>
<g mask="url(#mask22_outline_ins)">
<use xlink:href="#path45_stroke_2x" transform="translate(8789 -745)" fill="#FDF2FF" fill-opacity="0.11"/>
</g>
</g>
<g id="Ellipse">
<mask id="mask23_outline_ins">
<use xlink:href="#path46_fill" fill="white" transform="translate(8769 -765)"/>
</mask>
<g mask="url(#mask23_outline_ins)">
<use xlink:href="#path47_stroke_2x" transform="translate(8769 -765)" fill="#FDF2FF" fill-opacity="0.11"/>
</g>
</g>
<g id="Ellipse">
<mask id="mask24_outline_ins">
<use xlink:href="#path48_fill" fill="white" transform="translate(8749 -785)"/>
</mask>
<g mask="url(#mask24_outline_ins)">
<use xlink:href="#path49_stroke_2x" transform="translate(8749 -785)" fill="#FDF2FF" fill-opacity="0.11"/>
</g>
</g>
<g id="Ellipse">
<mask id="mask25_outline_ins">
<use xlink:href="#path50_fill" fill="white" transform="translate(8729 -805)"/>
</mask>
<g mask="url(#mask25_outline_ins)">
<use xlink:href="#path51_stroke_2x" transform="translate(8729 -805)" fill="#FDF2FF" fill-opacity="0.11"/>
</g>
</g>
<g id="Ellipse">
<mask id="mask26_outline_ins">
<use xlink:href="#path52_fill" fill="white" transform="translate(8709 -825)"/>
</mask>
<g mask="url(#mask26_outline_ins)">
<use xlink:href="#path53_stroke_2x" transform="translate(8709 -825)" fill="#FDF2FF" fill-opacity="0.11"/>
</g>
</g>
<g id="Ellipse">
<mask id="mask27_outline_ins">
<use xlink:href="#path54_fill" fill="white" transform="translate(8689 -845)"/>
</mask>
<g mask="url(#mask27_outline_ins)">
<use xlink:href="#path55_stroke_2x" transform="translate(8689 -845)" fill="#FDF2FF" fill-opacity="0.11"/>
</g>
</g>
<g id="Ellipse">
<mask id="mask28_outline_ins">
<use xlink:href="#path56_fill" fill="white" transform="translate(8669 -865)"/>
</mask>
<g mask="url(#mask28_outline_ins)">
<use xlink:href="#path57_stroke_2x" transform="translate(8669 -865)" fill="#FDF2FF" fill-opacity="0.11"/>
</g>
</g>
<g id="Ellipse">
<mask id="mask29_outline_ins">
<use xlink:href="#path58_fill" fill="white" transform="translate(8649 -885)"/>
</mask>
<g mask="url(#mask29_outline_ins)">
<use xlink:href="#path59_stroke_2x" transform="translate(8649 -885)" fill="#FDF2FF" fill-opacity="0.11"/>
</g>
</g>
<g id="Ellipse">
<mask id="mask30_outline_ins">
<use xlink:href="#path60_fill" fill="white" transform="translate(8629 -905)"/>
</mask>
<g mask="url(#mask30_outline_ins)">
<use xlink:href="#path61_stroke_2x" transform="translate(8629 -905)" fill="#FDF2FF" fill-opacity="0.11"/>
</g>
</g>
<g id="Ellipse">
<mask id="mask31_outline_ins">
<use xlink:href="#path62_fill" fill="white" transform="translate(8609 -925)"/>
</mask>
<g mask="url(#mask31_outline_ins)">
<use xlink:href="#path63_stroke_2x" transform="translate(8609 -925)" fill="#FDF2FF" fill-opacity="0.11"/>
</g>
</g>
<g id="Ellipse">
<mask id="mask32_outline_ins">
<use xlink:href="#path64_fill" fill="white" transform="translate(8589 -945)"/>
</mask>
<g mask="url(#mask32_outline_ins)">
<use xlink:href="#path65_stroke_2x" transform="translate(8589 -945)" fill="#FDF2FF" fill-opacity="0.11"/>
</g>
</g>
<g id="Ellipse">
<mask id="mask33_outline_ins">
<use xlink:href="#path66_fill" fill="white" transform="translate(8569 -965)"/>
</mask>
<g mask="url(#mask33_outline_ins)">
<use xlink:href="#path67_stroke_2x" transform="translate(8569 -965)" fill="#FDF2FF" fill-opacity="0.11"/>
</g>
</g>
<g id="Ellipse">
<mask id="mask34_outline_ins">
<use xlink:href="#path68_fill" fill="white" transform="translate(8549 -985)"/>
</mask>
<g mask="url(#mask34_outline_ins)">
<use xlink:href="#path69_stroke_2x" transform="translate(8549 -985)" fill="#FDF2FF" fill-opacity="0.11"/>
</g>
</g>
<g id="Ellipse">
<mask id="mask35_outline_ins">
<use xlink:href="#path70_fill" fill="white" transform="translate(8529 -1005)"/>
</mask>
<g mask="url(#mask35_outline_ins)">
<use xlink:href="#path71_stroke_2x" transform="translate(8529 -1005)" fill="#FDF2FF" fill-opacity="0.11"/>
</g>
</g>
</g>
</g>
<defs>
<path id="path0_fill" d="M 20 10C 20 15.5228 15.5228 20 10 20C 4.47715 20 0 15.5228 0 10C 0 4.47715 4.47715 0 10 0C 15.5228 0 20 4.47715 20 10Z"/>
<path id="path1_stroke_2x" d="M 19 10C 19 14.9706 14.9706 19 10 19L 10 21C 16.0751 21 21 16.0751 21 10L 19 10ZM 10 19C 5.02944 19 1 14.9706 1 10L -1 10C -1 16.0751 3.92487 21 10 21L 10 19ZM 1 10C 1 5.02944 5.02944 1 10 1L 10 -1C 3.92487 -1 -1 3.92487 -1 10L 1 10ZM 10 1C 14.9706 1 19 5.02944 19 10L 21 10C 21 3.92487 16.0751 -1 10 -1L 10 1Z"/>
<path id="path2_fill" d="M 60 30C 60 46.5685 46.5685 60 30 60C 13.4315 60 0 46.5685 0 30C 0 13.4315 13.4315 0 30 0C 46.5685 0 60 13.4315 60 30Z"/>
<path id="path3_stroke_2x" d="M 59 30C 59 46.0163 46.0163 59 30 59L 30 61C 47.1208 61 61 47.1208 61 30L 59 30ZM 30 59C 13.9837 59 1 46.0163 1 30L -1 30C -1 47.1208 12.8792 61 30 61L 30 59ZM 1 30C 1 13.9837 13.9837 1 30 1L 30 -1C 12.8792 -1 -1 12.8792 -1 30L 1 30ZM 30 1C 46.0163 1 59 13.9837 59 30L 61 30C 61 12.8792 47.1208 -1 30 -1L 30 1Z"/>
<path id="path4_fill" d="M 100 50C 100 77.6142 77.6142 100 50 100C 22.3858 100 0 77.6142 0 50C 0 22.3858 22.3858 0 50 0C 77.6142 0 100 22.3858 100 50Z"/>
<path id="path5_stroke_2x" d="M 99 50C 99 77.062 77.062 99 50 99L 50 101C 78.1665 101 101 78.1665 101 50L 99 50ZM 50 99C 22.938 99 1 77.062 1 50L -1 50C -1 78.1665 21.8335 101 50 101L 50 99ZM 1 50C 1 22.938 22.938 1 50 1L 50 -1C 21.8335 -1 -1 21.8335 -1 50L 1 50ZM 50 1C 77.062 1 99 22.938 99 50L 101 50C 101 21.8335 78.1665 -1 50 -1L 50 1Z"/>
<path id="path6_fill" d="M 140 70C 140 108.66 108.66 140 70 140C 31.3401 140 0 108.66 0 70C 0 31.3401 31.3401 0 70 0C 108.66 0 140 31.3401 140 70Z"/>
<path id="path7_stroke_2x" d="M 139 70C 139 108.108 108.108 139 70 139L 70 141C 109.212 141 141 109.212 141 70L 139 70ZM 70 139C 31.8924 139 1 108.108 1 70L -1 70C -1 109.212 30.7878 141 70 141L 70 139ZM 1 70C 1 31.8924 31.8924 1 70 1L 70 -1C 30.7878 -1 -1 30.7878 -1 70L 1 70ZM 70 1C 108.108 1 139 31.8924 139 70L 141 70C 141 30.7878 109.212 -1 70 -1L 70 1Z"/>
<path id="path8_fill" d="M 180 90C 180 139.706 139.706 180 90 180C 40.2944 180 0 139.706 0 90C 0 40.2944 40.2944 0 90 0C 139.706 0 180 40.2944 180 90Z"/>
<path id="path9_stroke_2x" d="M 179 90C 179 139.153 139.153 179 90 179L 90 181C 140.258 181 181 140.258 181 90L 179 90ZM 90 179C 40.8467 179 1 139.153 1 90L -1 90C -1 140.258 39.7421 181 90 181L 90 179ZM 1 90C 1 40.8467 40.8467 1 90 1L 90 -1C 39.7421 -1 -1 39.7421 -1 90L 1 90ZM 90 1C 139.153 1 179 40.8467 179 90L 181 90C 181 39.7421 140.258 -1 90 -1L 90 1Z"/>
<path id="path10_fill" d="M 220 110C 220 170.751 170.751 220 110 220C 49.2487 220 0 170.751 0 110C 0 49.2487 49.2487 0 110 0C 170.751 0 220 49.2487 220 110Z"/>
<path id="path11_stroke_2x" d="M 219 110C 219 170.199 170.199 219 110 219L 110 221C 171.304 221 221 171.304 221 110L 219 110ZM 110 219C 49.801 219 1 170.199 1 110L -1 110C -1 171.304 48.6964 221 110 221L 110 219ZM 1 110C 1 49.801 49.801 1 110 1L 110 -1C 48.6964 -1 -1 48.6964 -1 110L 1 110ZM 110 1C 170.199 1 219 49.801 219 110L 221 110C 221 48.6964 171.304 -1 110 -1L 110 1Z"/>
<path id="path12_fill" d="M 260 130C 260 201.797 201.797 260 130 260C 58.203 260 0 201.797 0 130C 0 58.203 58.203 0 130 0C 201.797 0 260 58.203 260 130Z"/>
<path id="path13_stroke_2x" d="M 259 130C 259 201.245 201.245 259 130 259L 130 261C 202.349 261 261 202.349 261 130L 259 130ZM 130 259C 58.7553 259 1 201.245 1 130L -1 130C -1 202.349 57.6507 261 130 261L 130 259ZM 1 130C 1 58.7553 58.7553 1 130 1L 130 -1C 57.6507 -1 -1 57.6507 -1 130L 1 130ZM 130 1C 201.245 1 259 58.7553 259 130L 261 130C 261 57.6507 202.349 -1 130 -1L 130 1Z"/>
<path id="path14_fill" d="M 300 150C 300 232.843 232.843 300 150 300C 67.1573 300 0 232.843 0 150C 0 67.1573 67.1573 0 150 0C 232.843 0 300 67.1573 300 150Z"/>
<path id="path15_stroke_2x" d="M 299 150C 299 232.29 232.29 299 150 299L 150 301C 233.395 301 301 233.395 301 150L 299 150ZM 150 299C 67.7096 299 1 232.29 1 150L -1 150C -1 233.395 66.605 301 150 301L 150 299ZM 1 150C 1 67.7096 67.7096 1 150 1L 150 -1C 66.605 -1 -1 66.605 -1 150L 1 150ZM 150 1C 232.29 1 299 67.7096 299 150L 301 150C 301 66.605 233.395 -1 150 -1L 150 1Z"/>
<path id="path16_fill" d="M 340 170C 340 263.888 263.888 340 170 340C 76.1116 340 0 263.888 0 170C 0 76.1116 76.1116 0 170 0C 263.888 0 340 76.1116 340 170Z"/>
<path id="path17_stroke_2x" d="M 339 170C 339 263.336 263.336 339 170 339L 170 341C 264.441 341 341 264.441 341 170L 339 170ZM 170 339C 76.6639 339 1 263.336 1 170L -1 170C -1 264.441 75.5593 341 170 341L 170 339ZM 1 170C 1 76.6639 76.6639 1 170 1L 170 -1C 75.5593 -1 -1 75.5593 -1 170L 1 170ZM 170 1C 263.336 1 339 76.6639 339 170L 341 170C 341 75.5593 264.441 -1 170 -1L 170 1Z"/>
<path id="path18_fill" d="M 380 190C 380 294.934 294.934 380 190 380C 85.0659 380 0 294.934 0 190C 0 85.0659 85.0659 0 190 0C 294.934 0 380 85.0659 380 190Z"/>
<path id="path19_stroke_2x" d="M 379 190C 379 294.382 294.382 379 190 379L 190 381C 295.486 381 381 295.486 381 190L 379 190ZM 190 379C 85.6182 379 1 294.382 1 190L -1 190C -1 295.486 84.5136 381 190 381L 190 379ZM 1 190C 1 85.6182 85.6182 1 190 1L 190 -1C 84.5136 -1 -1 84.5136 -1 190L 1 190ZM 190 1C 294.382 1 379 85.6182 379 190L 381 190C 381 84.5136 295.486 -1 190 -1L 190 1Z"/>
<path id="path20_fill" d="M 420 210C 420 325.98 325.98 420 210 420C 94.0202 420 0 325.98 0 210C 0 94.0202 94.0202 0 210 0C 325.98 0 420 94.0202 420 210Z"/>
<path id="path21_stroke_2x" d="M 419 210C 419 325.428 325.428 419 210 419L 210 421C 326.532 421 421 326.532 421 210L 419 210ZM 210 419C 94.5725 419 1 325.428 1 210L -1 210C -1 326.532 93.4679 421 210 421L 210 419ZM 1 210C 1 94.5725 94.5725 1 210 1L 210 -1C 93.4679 -1 -1 93.4679 -1 210L 1 210ZM 210 1C 325.428 1 419 94.5725 419 210L 421 210C 421 93.4679 326.532 -1 210 -1L 210 1Z"/>
<path id="path22_fill" d="M 460 230C 460 357.025 357.025 460 230 460C 102.975 460 0 357.025 0 230C 0 102.975 102.975 0 230 0C 357.025 0 460 102.975 460 230Z"/>
<path id="path23_stroke_2x" d="M 459 230C 459 356.473 356.473 459 230 459L 230 461C 357.578 461 461 357.578 461 230L 459 230ZM 230 459C 103.527 459 1 356.473 1 230L -1 230C -1 357.578 102.422 461 230 461L 230 459ZM 1 230C 1 103.527 103.527 1 230 1L 230 -1C 102.422 -1 -1 102.422 -1 230L 1 230ZM 230 1C 356.473 1 459 103.527 459 230L 461 230C 461 102.422 357.578 -1 230 -1L 230 1Z"/>
<path id="path24_fill" d="M 500 250C 500 388.071 388.071 500 250 500C 111.929 500 0 388.071 0 250C 0 111.929 111.929 0 250 0C 388.071 0 500 111.929 500 250Z"/>
<path id="path25_stroke_2x" d="M 499 250C 499 387.519 387.519 499 250 499L 250 501C 388.623 501 501 388.623 501 250L 499 250ZM 250 499C 112.481 499 1 387.519 1 250L -1 250C -1 388.623 111.377 501 250 501L 250 499ZM 1 250C 1 112.481 112.481 1 250 1L 250 -1C 111.377 -1 -1 111.377 -1 250L 1 250ZM 250 1C 387.519 1 499 112.481 499 250L 501 250C 501 111.377 388.623 -1 250 -1L 250 1Z"/>
<path id="path26_fill" d="M 540 270C 540 419.117 419.117 540 270 540C 120.883 540 0 419.117 0 270C 0 120.883 120.883 0 270 0C 419.117 0 540 120.883 540 270Z"/>
<path id="path27_stroke_2x" d="M 539 270C 539 418.565 418.565 539 270 539L 270 541C 419.669 541 541 419.669 541 270L 539 270ZM 270 539C 121.435 539 1 418.565 1 270L -1 270C -1 419.669 120.331 541 270 541L 270 539ZM 1 270C 1 121.435 121.435 1 270 1L 270 -1C 120.331 -1 -1 120.331 -1 270L 1 270ZM 270 1C 418.565 1 539 121.435 539 270L 541 270C 541 120.331 419.669 -1 270 -1L 270 1Z"/>
<path id="path28_fill" d="M 580 290C 580 450.163 450.163 580 290 580C 129.837 580 0 450.163 0 290C 0 129.837 129.837 0 290 0C 450.163 0 580 129.837 580 290Z"/>
<path id="path29_stroke_2x" d="M 579 290C 579 449.61 449.61 579 290 579L 290 581C 450.715 581 581 450.715 581 290L 579 290ZM 290 579C 130.39 579 1 449.61 1 290L -1 290C -1 450.715 129.285 581 290 581L 290 579ZM 1 290C 1 130.39 130.39 1 290 1L 290 -1C 129.285 -1 -1 129.285 -1 290L 1 290ZM 290 1C 449.61 1 579 130.39 579 290L 581 290C 581 129.285 450.715 -1 290 -1L 290 1Z"/>
<path id="path30_fill" d="M 620 310C 620 481.208 481.208 620 310 620C 138.792 620 0 481.208 0 310C 0 138.792 138.792 0 310 0C 481.208 0 620 138.792 620 310Z"/>
<path id="path31_stroke_2x" d="M 619 310C 619 480.656 480.656 619 310 619L 310 621C 481.761 621 621 481.761 621 310L 619 310ZM 310 619C 139.344 619 1 480.656 1 310L -1 310C -1 481.761 138.239 621 310 621L 310 619ZM 1 310C 1 139.344 139.344 1 310 1L 310 -1C 138.239 -1 -1 138.239 -1 310L 1 310ZM 310 1C 480.656 1 619 139.344 619 310L 621 310C 621 138.239 481.761 -1 310 -1L 310 1Z"/>
<path id="path32_fill" d="M 660 330C 660 512.254 512.254 660 330 660C 147.746 660 0 512.254 0 330C 0 147.746 147.746 0 330 0C 512.254 0 660 147.746 660 330Z"/>
<path id="path33_stroke_2x" d="M 659 330C 659 511.702 511.702 659 330 659L 330 661C 512.806 661 661 512.806 661 330L 659 330ZM 330 659C 148.298 659 1 511.702 1 330L -1 330C -1 512.806 147.194 661 330 661L 330 659ZM 1 330C 1 148.298 148.298 1 330 1L 330 -1C 147.194 -1 -1 147.194 -1 330L 1 330ZM 330 1C 511.702 1 659 148.298 659 330L 661 330C 661 147.194 512.806 -1 330 -1L 330 1Z"/>
<path id="path34_fill" d="M 700 350C 700 543.3 543.3 700 350 700C 156.7 700 0 543.3 0 350C 0 156.7 156.7 0 350 0C 543.3 0 700 156.7 700 350Z"/>
<path id="path35_stroke_2x" d="M 699 350C 699 542.747 542.747 699 350 699L 350 701C 543.852 701 701 543.852 701 350L 699 350ZM 350 699C 157.253 699 1 542.747 1 350L -1 350C -1 543.852 156.148 701 350 701L 350 699ZM 1 350C 1 157.253 157.253 1 350 1L 350 -1C 156.148 -1 -1 156.148 -1 350L 1 350ZM 350 1C 542.747 1 699 157.253 699 350L 701 350C 701 156.148 543.852 -1 350 -1L 350 1Z"/>
<path id="path36_fill" d="M 740 370C 740 574.345 574.345 740 370 740C 165.655 740 0 574.345 0 370C 0 165.655 165.655 0 370 0C 574.345 0 740 165.655 740 370Z"/>
<path id="path37_stroke_2x" d="M 739 370C 739 573.793 573.793 739 370 739L 370 741C 574.898 741 741 574.898 741 370L 739 370ZM 370 739C 166.207 739 1 573.793 1 370L -1 370C -1 574.898 165.102 741 370 741L 370 739ZM 1 370C 1 166.207 166.207 1 370 1L 370 -1C 165.102 -1 -1 165.102 -1 370L 1 370ZM 370 1C 573.793 1 739 166.207 739 370L 741 370C 741 165.102 574.898 -1 370 -1L 370 1Z"/>
<path id="path38_fill" d="M 780 390C 780 605.391 605.391 780 390 780C 174.609 780 0 605.391 0 390C 0 174.609 174.609 0 390 0C 605.391 0 780 174.609 780 390Z"/>
<path id="path39_stroke_2x" d="M 779 390C 779 604.839 604.839 779 390 779L 390 781C 605.943 781 781 605.943 781 390L 779 390ZM 390 779C 175.161 779 1 604.839 1 390L -1 390C -1 605.943 174.057 781 390 781L 390 779ZM 1 390C 1 175.161 175.161 1 390 1L 390 -1C 174.057 -1 -1 174.057 -1 390L 1 390ZM 390 1C 604.839 1 779 175.161 779 390L 781 390C 781 174.057 605.943 -1 390 -1L 390 1Z"/>
<path id="path40_fill" d="M 820 410C 820 636.437 636.437 820 410 820C 183.563 820 0 636.437 0 410C 0 183.563 183.563 0 410 0C 636.437 0 820 183.563 820 410Z"/>
<path id="path41_stroke_2x" d="M 819 410C 819 635.884 635.884 819 410 819L 410 821C 636.989 821 821 636.989 821 410L 819 410ZM 410 819C 184.116 819 1 635.884 1 410L -1 410C -1 636.989 183.011 821 410 821L 410 819ZM 1 410C 1 184.116 184.116 1 410 1L 410 -1C 183.011 -1 -1 183.011 -1 410L 1 410ZM 410 1C 635.884 1 819 184.116 819 410L 821 410C 821 183.011 636.989 -1 410 -1L 410 1Z"/>
<path id="path42_fill" d="M 860 430C 860 667.482 667.482 860 430 860C 192.518 860 0 667.482 0 430C 0 192.518 192.518 0 430 0C 667.482 0 860 192.518 860 430Z"/>
<path id="path43_stroke_2x" d="M 859 430C 859 666.93 666.93 859 430 859L 430 861C 668.035 861 861 668.035 861 430L 859 430ZM 430 859C 193.07 859 1 666.93 1 430L -1 430C -1 668.035 191.965 861 430 861L 430 859ZM 1 430C 1 193.07 193.07 1 430 1L 430 -1C 191.965 -1 -1 191.965 -1 430L 1 430ZM 430 1C 666.93 1 859 193.07 859 430L 861 430C 861 191.965 668.035 -1 430 -1L 430 1Z"/>
<path id="path44_fill" d="M 900 450C 900 698.528 698.528 900 450 900C 201.472 900 0 698.528 0 450C 0 201.472 201.472 0 450 0C 698.528 0 900 201.472 900 450Z"/>
<path id="path45_stroke_2x" d="M 899 450C 899 697.976 697.976 899 450 899L 450 901C 699.08 901 901 699.08 901 450L 899 450ZM 450 899C 202.024 899 1 697.976 1 450L -1 450C -1 699.08 200.92 901 450 901L 450 899ZM 1 450C 1 202.024 202.024 1 450 1L 450 -1C 200.92 -1 -1 200.92 -1 450L 1 450ZM 450 1C 697.976 1 899 202.024 899 450L 901 450C 901 200.92 699.08 -1 450 -1L 450 1Z"/>
<path id="path46_fill" d="M 940 470C 940 729.574 729.574 940 470 940C 210.426 940 0 729.574 0 470C 0 210.426 210.426 0 470 0C 729.574 0 940 210.426 940 470Z"/>
<path id="path47_stroke_2x" d="M 939 470C 939 729.022 729.022 939 470 939L 470 941C 730.126 941 941 730.126 941 470L 939 470ZM 470 939C 210.978 939 1 729.022 1 470L -1 470C -1 730.126 209.874 941 470 941L 470 939ZM 1 470C 1 210.978 210.978 1 470 1L 470 -1C 209.874 -1 -1 209.874 -1 470L 1 470ZM 470 1C 729.022 1 939 210.978 939 470L 941 470C 941 209.874 730.126 -1 470 -1L 470 1Z"/>
<path id="path48_fill" d="M 980 490C 980 760.62 760.62 980 490 980C 219.38 980 0 760.62 0 490C 0 219.38 219.38 0 490 0C 760.62 0 980 219.38 980 490Z"/>
<path id="path49_stroke_2x" d="M 979 490C 979 760.067 760.067 979 490 979L 490 981C 761.172 981 981 761.172 981 490L 979 490ZM 490 979C 219.933 979 1 760.067 1 490L -1 490C -1 761.172 218.828 981 490 981L 490 979ZM 1 490C 1 219.933 219.933 1 490 1L 490 -1C 218.828 -1 -1 218.828 -1 490L 1 490ZM 490 1C 760.067 1 979 219.933 979 490L 981 490C 981 218.828 761.172 -1 490 -1L 490 1Z"/>
<path id="path50_fill" d="M 1020 510C 1020 791.665 791.665 1020 510 1020C 228.335 1020 0 791.665 0 510C 0 228.335 228.335 0 510 0C 791.665 0 1020 228.335 1020 510Z"/>
<path id="path51_stroke_2x" d="M 1019 510C 1019 791.113 791.113 1019 510 1019L 510 1021C 792.218 1021 1021 792.218 1021 510L 1019 510ZM 510 1019C 228.887 1019 1 791.113 1 510L -1 510C -1 792.218 227.782 1021 510 1021L 510 1019ZM 1 510C 1 228.887 228.887 1 510 1L 510 -1C 227.782 -1 -1 227.782 -1 510L 1 510ZM 510 1C 791.113 1 1019 228.887 1019 510L 1021 510C 1021 227.782 792.218 -1 510 -1L 510 1Z"/>
<path id="path52_fill" d="M 1060 530C 1060 822.711 822.711 1060 530 1060C 237.289 1060 0 822.711 0 530C 0 237.289 237.289 0 530 0C 822.711 0 1060 237.289 1060 530Z"/>
<path id="path53_stroke_2x" d="M 1059 530C 1059 822.159 822.159 1059 530 1059L 530 1061C 823.263 1061 1061 823.263 1061 530L 1059 530ZM 530 1059C 237.841 1059 1 822.159 1 530L -1 530C -1 823.263 236.737 1061 530 1061L 530 1059ZM 1 530C 1 237.841 237.841 1 530 1L 530 -1C 236.737 -1 -1 236.737 -1 530L 1 530ZM 530 1C 822.159 1 1059 237.841 1059 530L 1061 530C 1061 236.737 823.263 -1 530 -1L 530 1Z"/>
<path id="path54_fill" d="M 1100 550C 1100 853.757 853.757 1100 550 1100C 246.243 1100 0 853.757 0 550C 0 246.243 246.243 0 550 0C 853.757 0 1100 246.243 1100 550Z"/>
<path id="path55_stroke_2x" d="M 1099 550C 1099 853.204 853.204 1099 550 1099L 550 1101C 854.309 1101 1101 854.309 1101 550L 1099 550ZM 550 1099C 246.796 1099 1 853.204 1 550L -1 550C -1 854.309 245.691 1101 550 1101L 550 1099ZM 1 550C 1 246.796 246.796 1 550 1L 550 -1C 245.691 -1 -1 245.691 -1 550L 1 550ZM 550 1C 853.204 1 1099 246.796 1099 550L 1101 550C 1101 245.691 854.309 -1 550 -1L 550 1Z"/>
<path id="path56_fill" d="M 1140 570C 1140 884.802 884.802 1140 570 1140C 255.198 1140 0 884.802 0 570C 0 255.198 255.198 0 570 0C 884.802 0 1140 255.198 1140 570Z"/>
<path id="path57_stroke_2x" d="M 1139 570C 1139 884.25 884.25 1139 570 1139L 570 1141C 885.355 1141 1141 885.355 1141 570L 1139 570ZM 570 1139C 255.75 1139 1 884.25 1 570L -1 570C -1 885.355 254.645 1141 570 1141L 570 1139ZM 1 570C 1 255.75 255.75 1 570 1L 570 -1C 254.645 -1 -1 254.645 -1 570L 1 570ZM 570 1C 884.25 1 1139 255.75 1139 570L 1141 570C 1141 254.645 885.355 -1 570 -1L 570 1Z"/>
<path id="path58_fill" d="M 1180 590C 1180 915.848 915.848 1180 590 1180C 264.152 1180 0 915.848 0 590C 0 264.152 264.152 0 590 0C 915.848 0 1180 264.152 1180 590Z"/>
<path id="path59_stroke_2x" d="M 1179 590C 1179 915.296 915.296 1179 590 1179L 590 1181C 916.4 1181 1181 916.4 1181 590L 1179 590ZM 590 1179C 264.704 1179 1 915.296 1 590L -1 590C -1 916.4 263.6 1181 590 1181L 590 1179ZM 1 590C 1 264.704 264.704 1 590 1L 590 -1C 263.6 -1 -1 263.6 -1 590L 1 590ZM 590 1C 915.296 1 1179 264.704 1179 590L 1181 590C 1181 263.6 916.4 -1 590 -1L 590 1Z"/>
<path id="path60_fill" d="M 1220 610C 1220 946.894 946.894 1220 610 1220C 273.106 1220 0 946.894 0 610C 0 273.106 273.106 0 610 0C 946.894 0 1220 273.106 1220 610Z"/>
<path id="path61_stroke_2x" d="M 1219 610C 1219 946.341 946.341 1219 610 1219L 610 1221C 947.446 1221 1221 947.446 1221 610L 1219 610ZM 610 1219C 273.659 1219 1 946.341 1 610L -1 610C -1 947.446 272.554 1221 610 1221L 610 1219ZM 1 610C 1 273.659 273.659 1 610 1L 610 -1C 272.554 -1 -1 272.554 -1 610L 1 610ZM 610 1C 946.341 1 1219 273.659 1219 610L 1221 610C 1221 272.554 947.446 -1 610 -1L 610 1Z"/>
<path id="path62_fill" d="M 1260 630C 1260 977.939 977.939 1260 630 1260C 282.061 1260 0 977.939 0 630C 0 282.061 282.061 0 630 0C 977.939 0 1260 282.061 1260 630Z"/>
<path id="path63_stroke_2x" d="M 1259 630C 1259 977.387 977.387 1259 630 1259L 630 1261C 978.492 1261 1261 978.492 1261 630L 1259 630ZM 630 1259C 282.613 1259 1 977.387 1 630L -1 630C -1 978.492 281.508 1261 630 1261L 630 1259ZM 1 630C 1 282.613 282.613 1 630 1L 630 -1C 281.508 -1 -1 281.508 -1 630L 1 630ZM 630 1C 977.387 1 1259 282.613 1259 630L 1261 630C 1261 281.508 978.492 -1 630 -1L 630 1Z"/>
<path id="path64_fill" d="M 1300 650C 1300 1008.99 1008.99 1300 650 1300C 291.015 1300 0 1008.99 0 650C 0 291.015 291.015 0 650 0C 1008.99 0 1300 291.015 1300 650Z"/>
<path id="path65_stroke_2x" d="M 1299 650C 1299 1008.43 1008.43 1299 650 1299L 650 1301C 1009.54 1301 1301 1009.54 1301 650L 1299 650ZM 650 1299C 291.567 1299 1 1008.43 1 650L -1 650C -1 1009.54 290.463 1301 650 1301L 650 1299ZM 1 650C 1 291.567 291.567 1 650 1L 650 -1C 290.463 -1 -1 290.463 -1 650L 1 650ZM 650 1C 1008.43 1 1299 291.567 1299 650L 1301 650C 1301 290.463 1009.54 -1 650 -1L 650 1Z"/>
<path id="path66_fill" d="M 1340 670C 1340 1040.03 1040.03 1340 670 1340C 299.969 1340 0 1040.03 0 670C 0 299.969 299.969 0 670 0C 1040.03 0 1340 299.969 1340 670Z"/>
<path id="path67_stroke_2x" d="M 1339 670C 1339 1039.48 1039.48 1339 670 1339L 670 1341C 1040.58 1341 1341 1040.58 1341 670L 1339 670ZM 670 1339C 300.522 1339 1 1039.48 1 670L -1 670C -1 1040.58 299.417 1341 670 1341L 670 1339ZM 1 670C 1 300.522 300.522 1 670 1L 670 -1C 299.417 -1 -1 299.417 -1 670L 1 670ZM 670 1C 1039.48 1 1339 300.522 1339 670L 1341 670C 1341 299.417 1040.58 -1 670 -1L 670 1Z"/>
<path id="path68_fill" d="M 1380 690C 1380 1071.08 1071.08 1380 690 1380C 308.924 1380 0 1071.08 0 690C 0 308.924 308.924 0 690 0C 1071.08 0 1380 308.924 1380 690Z"/>
<path id="path69_stroke_2x" d="M 1379 690C 1379 1070.52 1070.52 1379 690 1379L 690 1381C 1071.63 1381 1381 1071.63 1381 690L 1379 690ZM 690 1379C 309.476 1379 1 1070.52 1 690L -1 690C -1 1071.63 308.371 1381 690 1381L 690 1379ZM 1 690C 1 309.476 309.476 1 690 1L 690 -1C 308.371 -1 -1 308.371 -1 690L 1 690ZM 690 1C 1070.52 1 1379 309.476 1379 690L 1381 690C 1381 308.371 1071.63 -1 690 -1L 690 1Z"/>
<path id="path70_fill" d="M 1420 710C 1420 1102.12 1102.12 1420 710 1420C 317.878 1420 0 1102.12 0 710C 0 317.878 317.878 0 710 0C 1102.12 0 1420 317.878 1420 710Z"/>
<path id="path71_stroke_2x" d="M 1419 710C 1419 1101.57 1101.57 1419 710 1419L 710 1421C 1102.67 1421 1421 1102.67 1421 710L 1419 710ZM 710 1419C 318.43 1419 1 1101.57 1 710L -1 710C -1 1102.67 317.326 1421 710 1421L 710 1419ZM 1 710C 1 318.43 318.43 1 710 1L 710 -1C 317.326 -1 -1 317.326 -1 710L 1 710ZM 710 1C 1101.57 1 1419 318.43 1419 710L 1421 710C 1421 317.326 1102.67 -1 710 -1L 710 1Z"/>
</defs>
</svg>
