<svg width="428" height="764" viewBox="0 0 428 764" version="1.1" xmlns="http://www.w3.org/2000/svg" xmlns:xlink="http://www.w3.org/1999/xlink">
<title>Graphic Recorder</title>
<desc>Created using Figma</desc>
<g id="Canvas" transform="translate(-4404 638)">
<g id="Graphic Recorder">
<g id="Lines">
<g id="Line 3.1">
<use xlink:href="#path0_stroke" transform="matrix(-0.999568 -0.0293991 0.0293991 -0.999568 4748.26 124.728)" fill="#F69B39" fill-opacity="0.21"/>
</g>
<g id="Line 3.2">
<use xlink:href="#path0_stroke" transform="matrix(-0.999568 -0.0293991 0.0293991 -0.999568 4747.26 119.728)" fill="#FAFF99" fill-opacity="0.25"/>
</g>
<g id="Line 3">
<use xlink:href="#path0_stroke" transform="matrix(-0.999568 -0.0293991 0.0293991 -0.999568 4746.26 122.728)" fill="#DD6868"/>
</g>
</g>
<g id="Recorder" filter="url(#filter0_d)">
<g id="Rectangle 2.1">
<use xlink:href="#path1_fill" transform="translate(4489 -622)" fill="#FAFF99" fill-opacity="0.25"/>
</g>
<g id="Rectangle 2.2">
<use xlink:href="#path1_fill" transform="translate(4501 -611)" fill="#F69B39" fill-opacity="0.21"/>
</g>
<g id="Rectangle 2">
<use xlink:href="#path1_fill" transform="translate(4496 -617)" fill="#413657"/>
</g>
<g id="Rectangle 2.3">
<use xlink:href="#path2_fill" transform="translate(4521 -434)" fill="#FAFF99" fill-opacity="0.1"/>
</g>
<g id="Line 3">
<use xlink:href="#path3_stroke" transform="matrix(-0.999568 -0.0293991 0.0293991 -0.999568 4776.09 -422.218)" fill="#DD6868"/>
</g>
<g id="Band">
<g id="Ellipse">
<use xlink:href="#path4_fill" transform="translate(4533 -577)" fill="#8B77C1"/>
</g>
<g id="Ellipse">
<use xlink:href="#path5_fill" transform="translate(4481.5 -629)" fill="#B499FF" fill-opacity="0.3"/>
</g>
<g id="Ellipse">
<use xlink:href="#path6_stroke" transform="translate(4481 -630)" fill="#B499FF"/>
</g>
</g>
<g id="Band">
<g id="Ellipse">
<use xlink:href="#path6_stroke" transform="translate(4663 -622)" fill="#B499FF"/>
</g>
<g id="Ellipse">
<use xlink:href="#path4_fill" transform="translate(4715 -569)" fill="#8B77C1"/>
</g>
<g id="Ellipse">
<use xlink:href="#path5_fill" transform="translate(4663.5 -621)" fill="#B499FF" fill-opacity="0.3"/>
</g>
</g>
<g id="Ellipse">
<use xlink:href="#path7_fill" transform="translate(4588 -454)" fill="#B499FF"/>
</g>
<g id="Ellipse">
<use xlink:href="#path8_fill" transform="translate(4528 -383)" fill="#DD6868"/>
</g>
<g id="Ellipse">
<use xlink:href="#path8_fill" transform="translate(4560 -383)" fill="#B499FF"/>
</g>
<g id="Ellipse">
<use xlink:href="#path8_fill" transform="translate(4715 -383)" fill="#DD6868"/>
</g>
<g id="Ellipse">
<use xlink:href="#path8_fill" transform="translate(4745 -383)" fill="#B499FF"/>
</g>
<g id="Ellipse">
<use xlink:href="#path7_fill" transform="translate(4646 -571)" fill="#B499FF"/>
</g>
<g id="Ellipse">
<use xlink:href="#path9_fill" transform="translate(4649 -597)" fill="#B499FF"/>
</g>
<g id="Rectangle">
<mask id="mask0_outline_ins">
<use xlink:href="#path10_fill" fill="white" transform="translate(4590 -389)"/>
</mask>
<g mask="url(#mask0_outline_ins)">
<use xlink:href="#path11_stroke_2x" transform="translate(4590 -389)" fill="#B499FF"/>
</g>
</g>
<g id="Rectangle">
<mask id="mask1_outline_ins">
<use xlink:href="#path10_fill" fill="white" transform="translate(4666 -389)"/>
</mask>
<g mask="url(#mask1_outline_ins)">
<use xlink:href="#path11_stroke_2x" transform="translate(4666 -389)" fill="#B499FF"/>
</g>
</g>
<g id="Line">
<use xlink:href="#path12_stroke" transform="matrix(-0.633238 -0.773957 0.773957 -0.633238 4681 -366)" fill="#B499FF"/>
</g>
<g id="Line 2">
<use xlink:href="#path13_stroke" transform="matrix(-0.672673 -0.73994 0.73994 -0.672673 4605 -366)" fill="#B499FF"/>
</g>
<g id="Ellipse">
<use xlink:href="#path14_fill" transform="translate(4586 -467)" fill="#B499FF"/>
</g>
<g id="Vector">
<use xlink:href="#path15_fill" transform="translate(4603 -456)" fill="#8B77C1"/>
</g>
</g>
</g>
</g>
<defs>
<filter id="filter0_d" filterUnits="userSpaceOnUse" x="4469" y="-638" width="363" height="312" color-interpolation-filters="sRGB">
<feFlood flood-opacity="0" result="BackgroundImageFix"/>
<feColorMatrix in="SourceAlpha" type="matrix" values="0 0 0 0 0 0 0 0 0 0 0 0 0 0 0 0 0 0 255 0"/>
<feOffset dx="0" dy="4"/>
<feGaussianBlur stdDeviation="5"/>
<feColorMatrix type="matrix" values="0 0 0 0 0 0 0 0 0 0 0 0 0 0 0 0 0 0 0.05 0"/>
<feBlend mode="normal" in2="BackgroundImageFix" result="effect1_dropShadow"/>
<feBlend mode="normal" in="SourceGraphic" in2="effect1_dropShadow" result="shape"/>
</filter>
<path id="path0_stroke" d="M 113.965 124.432L 116.208 123.327L 113.965 124.432ZM 29.1633 81.4061L 29.4136 78.9187L 29.1633 81.4061ZM 92.9447 209.086L 91.0703 207.432L 92.9447 209.086ZM 344.762 216.186L 347.178 216.827L 344.762 216.186ZM 244.599 127.092L 244.176 129.556L 244.599 127.092ZM 209.011 260.696L 208.701 263.177L 208.739 263.182L 208.777 263.185L 209.011 260.696ZM 116.208 123.327C 93.7168 77.6649 40.2929 80.0133 29.4136 78.9187L 28.9131 83.8936C 41.1124 85.121 90.74 82.9371 111.722 125.536L 116.208 123.327ZM 29.4136 78.9187C 14.2706 77.3951 6.86379 72.428 4.02533 66.5413C 1.147 60.5718 2.42139 52.5699 7.22922 43.7472C 16.8228 26.1425 39.1627 7.81021 59.4262 2.41586L 58.14 -2.41586C 36.4884 3.34802 13.057 22.6036 2.8388 41.3547C -2.25927 50.71 -4.40091 60.578 -0.478449 68.7129C 3.48388 76.9305 13.0947 82.302 28.9131 83.8936L 29.4136 78.9187ZM 31.6357 373.301C 37.1253 381.362 45.8322 388.92 55.1511 396.323C 64.466 403.722 74.5096 411.105 83.0645 419.112C 91.6149 427.108 98.4779 435.534 101.732 444.97C 104.946 454.29 104.725 464.847 98.6204 477.374L 103.115 479.565C 109.747 465.956 110.144 454.026 106.459 443.34C 102.813 432.769 95.2599 423.671 86.4797 415.46C 77.7041 407.259 67.5028 399.75 58.2611 392.408C 49.0234 385.071 40.8622 378.04 35.7745 370.495L 31.6357 373.301ZM 94.819 210.741C 100.726 204.048 116.784 180.282 142.327 159.705C 167.77 139.209 202.156 122.331 244.176 129.556L 245.023 124.628C 201.072 117.071 165.265 134.806 139.19 155.811C 113.216 176.735 96.4322 201.357 91.0703 207.432L 94.819 210.741ZM 244.176 129.556C 282.175 136.09 308.436 151.584 324.309 168.48C 340.283 185.483 345.512 203.594 342.345 215.546L 347.178 216.827C 350.958 202.563 344.567 182.74 327.953 165.057C 311.239 147.266 283.946 131.321 245.023 124.628L 244.176 129.556ZM 342.345 215.546C 337.264 234.723 320.534 246.955 296.427 253.633C 272.224 260.356 241.446 261.248 209.246 258.207L 208.777 263.185C 241.284 266.245 272.971 265.3 297.762 258.452C 322.648 251.558 341.439 238.486 347.178 216.827L 342.345 215.546ZM 209.321 258.216C 182.882 254.912 165.464 247.677 153.761 238.204C 141.945 228.707 135.888 217.003 132.169 203.88C 128.424 190.757 127.295 176.595 125.687 162.694C 124.078 148.791 121.935 135.022 116.208 123.327L 111.722 125.536C 117.166 136.523 119.123 149.458 120.72 163.269C 122.319 177.083 123.504 191.646 127.36 205.248C 131.243 218.852 138.074 231.872 150.615 242.09C 163.267 252.331 181.671 259.8 208.701 263.177L 209.321 258.216ZM 35.7745 370.495C 25.7528 355.71 23.243 335.393 31.9165 308.855C 40.6054 282.27 60.4634 249.666 94.819 210.741L 91.0703 207.432C 56.4882 246.614 36.149 279.811 27.1639 307.302C 18.1634 334.841 20.5028 356.876 31.6357 373.301L 35.7745 370.495Z"/>
<path id="path1_fill" d="M 0 0L 308 0L 308 271L 0 271L 0 0Z"/>
<path id="path2_fill" d="M 0 0L 260 0L 260 27L 0 27L 0 0Z"/>
<path id="path3_stroke" d="M 39.7863 159.181L 39.811 157.681L 39.71 157.68L 39.6096 157.692L 39.7863 159.181ZM 230.954 161.562L 230.811 160.069L 230.799 160.07L 230.786 160.072L 230.954 161.562ZM 180.784 37.9834L 179.666 38.983L 179.682 39.001L 179.698 39.0184L 180.784 37.9834ZM 185.503 11.3334L 186.32 10.0755L 186.275 10.0464L 186.229 10.0205L 185.503 11.3334ZM 162.66 0L 163.295 -1.35883L 162.972 -1.50983L 162.616 -1.49935L 162.66 0ZM 84.1937 2.30783L 84.1496 0.808476L 83.9881 0.813226L 83.8313 0.852255L 84.1937 2.30783ZM 5.97757 98.1483L 7.29227 98.8705L 7.33201 98.7981L 7.36357 98.7219L 5.97757 98.1483ZM 224.956 162.239L 224.932 163.738L 225.028 163.74L 225.125 163.729L 224.956 162.239ZM 183.489 27.8995L 183.943 29.3291L 184.145 29.265L 184.321 29.1478L 183.489 27.8995ZM 244.768 91.4927C 250.457 93.863 254.773 99.0112 257.441 105.659C 260.147 112.37 261.084 120.269 260.122 128.154C 258.228 143.861 248.811 158.352 230.811 160.069L 231.096 163.055C 250.992 161.157 261.105 145.061 263.101 128.514C 264.084 120.272 263.054 111.628 260.225 104.542C 257.357 97.3942 252.568 91.4928 245.922 88.7235L 244.768 91.4927ZM 245.922 88.7235C 233.854 83.6953 217.888 70.8357 204.816 59.0759C 198.307 53.2203 192.576 47.6931 188.458 43.6164C 186.401 41.5804 184.755 39.9142 183.619 38.7526C 183.052 38.1729 182.615 37.722 182.318 37.4142C 182.17 37.2609 182.058 37.1445 181.982 37.0655C 181.944 37.0263 181.916 36.9971 181.897 36.9772C 181.888 36.9674 181.881 36.9602 181.876 36.9552C 181.874 36.9528 181.872 36.9511 181.871 36.9499C 181.871 36.9493 181.87 36.949 181.87 36.9487C 181.87 36.9485 181.87 36.9484 180.784 37.9834C 179.698 39.0184 179.699 39.0187 179.699 39.0191C 179.699 39.0194 179.7 39.02 179.701 39.0207C 179.702 39.022 179.704 39.0241 179.706 39.0268C 179.711 39.032 179.719 39.04 179.729 39.0504C 179.749 39.0708 179.778 39.1017 179.817 39.142C 179.894 39.222 180.009 39.3418 180.159 39.4975C 180.458 39.8076 180.902 40.2658 181.474 40.8504C 182.616 42.0174 184.279 43.7007 186.347 45.7484C 190.48 49.8389 196.263 55.4155 202.81 61.3062C 215.851 73.039 232.166 86.2418 244.768 91.4927L 245.922 88.7235ZM 191.215 19.463C 191.76 16.2538 190.166 12.5744 186.32 10.0755L 184.686 12.5912C 187.722 14.5637 188.566 17.1435 188.257 18.9612L 191.215 19.463ZM 186.229 10.0205C 170.212 1.16938 170.519 2.01853 163.295 -1.35883L 162.025 1.35883C 169.385 4.79978 168.879 3.86036 184.778 12.6462L 186.229 10.0205ZM 162.616 -1.49935L 84.1496 0.808476L 84.2378 3.80718L 162.704 1.49935L 162.616 -1.49935ZM 84.1937 2.30783C 83.8313 0.852255 83.8311 0.852304 83.8308 0.852389C 83.8305 0.852467 83.83 0.852589 83.8294 0.852743C 83.8281 0.853045 83.8263 0.853508 83.8239 0.854109C 83.8191 0.855295 83.8119 0.857094 83.8025 0.859451C 83.7837 0.864132 83.7555 0.871174 83.7185 0.880418C 83.6449 0.898841 83.5351 0.926343 83.3923 0.962237C 83.1071 1.03389 82.6876 1.13969 82.1535 1.27536C 81.0863 1.54641 79.5555 1.93831 77.7102 2.41927C 74.022 3.38056 69.0592 4.70252 63.9941 6.13608C 58.9295 7.56957 53.7302 9.12459 49.5929 10.5446C 47.5185 11.2568 45.6685 11.9513 44.2463 12.5758C 42.8988 13.1681 41.6379 13.8182 40.9734 14.5231L 43.1562 16.5811C 43.3405 16.3856 44.0328 15.9466 45.4535 15.3222C 46.7994 14.73 48.5326 14.0802 50.567 13.382C 54.6472 11.981 59.7678 10.4501 64.8111 9.02268C 69.8538 7.59537 74.7864 6.28154 78.4669 5.32228C 80.3059 4.84296 81.8276 4.45339 82.892 4.18303C 83.4236 4.048 83.8395 3.94312 84.1235 3.87176C 84.2652 3.83615 84.3733 3.80907 84.4464 3.79078C 84.4828 3.78167 84.5102 3.77483 84.5287 3.77021C 84.5379 3.76792 84.5447 3.76622 84.5494 3.76506C 84.5517 3.76449 84.5533 3.76408 84.5545 3.76379C 84.555 3.76365 84.5554 3.76356 84.5557 3.76349C 84.5559 3.76342 84.556 3.7634 84.1937 2.30783ZM 40.9734 14.5231C 40.6071 14.9116 40.1935 15.6068 39.7848 16.3518C 39.3477 17.1489 38.8057 18.2148 38.1905 19.4789C 36.9646 21.9982 35.3989 25.4012 33.6246 29.3643C 30.0781 37.2859 25.6678 47.5106 21.3677 57.6133C 17.0675 67.7162 12.873 77.7076 9.75465 85.1708C 8.19531 88.9027 6.90447 92.0039 6.00376 94.1713C 5.55334 95.2552 5.20027 96.1061 4.95993 96.6857C 4.83973 96.9756 4.74764 97.1978 4.68564 97.3475C 4.65463 97.4224 4.63111 97.4792 4.61537 97.5172C 4.60749 97.5362 4.60154 97.5506 4.59757 97.5602C 4.59558 97.565 4.59408 97.5686 4.59308 97.571C 4.59258 97.5722 4.5922 97.5731 4.59195 97.5737C 4.5917 97.5744 4.59157 97.5747 5.97757 98.1483C 7.36357 98.7219 7.36369 98.7216 7.36393 98.721C 7.36418 98.7204 7.36454 98.7195 7.36504 98.7183C 7.36603 98.7159 7.3675 98.7123 7.36948 98.7076C 7.37343 98.698 7.37933 98.6838 7.38718 98.6648C 7.40289 98.6269 7.42631 98.5703 7.45726 98.4956C 7.51919 98.3461 7.61108 98.1243 7.73114 97.8348C 7.97134 97.2555 8.32396 96.4057 8.77408 95.3226C 9.67445 93.1559 10.9642 90.0575 12.5227 86.3274C 15.6401 78.8665 19.8308 68.8843 24.128 58.7882C 28.4253 48.6922 32.8245 38.4929 36.3627 30.5901C 38.1307 26.641 39.6762 23.2816 40.888 20.7916C 41.4917 19.551 42.0002 18.5504 42.415 17.7947C 42.6191 17.4225 42.7836 17.1389 42.93 16.9081C 43.0659 16.692 43.198 16.5414 43.1562 16.5811L 40.9734 14.5231ZM 4.66287 97.4261C -5.12321 115.241 -2.21397 131.782 6.12623 143.497C 14.3922 155.109 28.0867 162.079 39.9629 160.671L 39.6096 157.692C 29.0546 158.944 16.3487 152.684 8.57021 141.758C 0.865886 130.935 -1.9136 115.629 7.29227 98.8705L 4.66287 97.4261ZM 39.7615 160.681L 224.932 163.738L 224.981 160.739L 39.811 157.681L 39.7615 160.681ZM 225.125 163.729L 231.122 163.053L 230.786 160.072L 224.788 160.748L 225.125 163.729ZM 188.56 25.7324C 189.705 24.3315 190.749 22.2088 191.215 19.463L 188.257 18.9612C 187.87 21.2422 187.024 22.8718 186.238 23.834L 188.56 25.7324ZM 181.903 36.9838C 180.464 35.3742 180.363 33.7197 180.874 32.3489C 181.417 30.8908 182.665 29.7353 183.943 29.3291L 183.035 26.47C 180.844 27.1662 178.916 29.0127 178.063 31.3009C 177.177 33.6764 177.458 36.5126 179.666 38.983L 181.903 36.9838ZM 184.321 29.1478C 185.327 28.4772 187.418 27.1299 188.56 25.7324L 186.238 23.834C 185.448 24.7997 183.825 25.8731 182.657 26.6512L 184.321 29.1478Z"/>
<path id="path4_fill" d="M 53 26.5C 53 41.1355 41.1355 53 26.5 53C 11.8645 53 0 41.1355 0 26.5C 0 11.8645 11.8645 0 26.5 0C 41.1355 0 53 11.8645 53 26.5Z"/>
<path id="path5_fill" d="M 113.5 78.5001C 113.5 83.8099 112.466 88.875 110.59 93.5C 110.175 94.5222 130 120 146.5 117.5C 144.618 121.217 126.896 139.583 124 142.5C 125 125 96.6232 111.236 93.5 113.004C 89.9688 115.003 86.0992 116.462 82 117.27C 80.5757 117.551 66 145 74.5 156.5C 67.8518 162.995 44.0599 150 43 150C 54.5 142 60.4543 115.994 54.6365 112.5C 50.1505 109.806 46.2434 106.227 43.1497 102C 41.4529 99.6817 15.5 103 7 112.5C 4.858 107.609 0 95.1952 0 89.5C 17.5 93 35.5452 76.1532 35.6341 75C 35.9454 70.9617 36.7928 67.0977 38.1126 63.5C 39.2287 60.4577 29 41 12 37C 13.7394 34.4147 25.209 20.5465 27.5 18.5C 31 33.5 53.8859 43.8585 57 42.3937C 61.6377 40.2124 66.8605 39 72.5 39C 75.0452 39 86 8 77 0C 79.948 0.504339 104.8 3.41341 107.5 4.5C 96.9525 8.78492 96 38.5 97 44C 99.5 50 103.697 50.913 105 52.5C 107.171 55.1442 141.5 50.5 145 39C 146.152 41.5335 154.896 66.2116 155.5 69C 143.5 59.5 113.5 75.582 113.5 78.5001Z"/>
<path id="path6_stroke" d="M 155 79.5C 155 122.326 120.726 157 78.5 157L 78.5 161C 122.983 161 159 124.487 159 79.5L 155 79.5ZM 78.5 157C 36.274 157 2 122.326 2 79.5L -2 79.5C -2 124.487 34.0173 161 78.5 161L 78.5 157ZM 2 79.5C 2 36.674 36.274 2 78.5 2L 78.5 -2C 34.0173 -2 -2 34.5127 -2 79.5L 2 79.5ZM 78.5 2C 120.726 2 155 36.674 155 79.5L 159 79.5C 159 34.5127 122.983 -2 78.5 -2L 78.5 2Z"/>
<path id="path7_fill" d="M 17 8C 17 12.4183 13.1944 16 8.5 16C 3.80558 16 0 12.4183 0 8C 0 3.58172 3.80558 0 8.5 0C 13.1944 0 17 3.58172 17 8Z"/>
<path id="path8_fill" d="M 22 11C 22 17.0751 17.0751 22 11 22C 4.92487 22 0 17.0751 0 11C 0 4.92487 4.92487 0 11 0C 17.0751 0 22 4.92487 22 11Z"/>
<path id="path9_fill" d="M 10 5C 10 7.76142 7.76142 10 5 10C 2.23858 10 0 7.76142 0 5C 0 2.23858 2.23858 0 5 0C 7.76142 0 10 2.23858 10 5Z"/>
<path id="path10_fill" d="M 0 0L 43 0L 43 25L 0 25L 0 0Z"/>
<path id="path11_stroke_2x" d="M 0 0L 0 -3L -3 -3L -3 0L 0 0ZM 43 0L 46 0L 46 -3L 43 -3L 43 0ZM 43 25L 43 28L 46 28L 46 25L 43 25ZM 0 25L -3 25L -3 28L 0 28L 0 25ZM 0 3L 43 3L 43 -3L 0 -3L 0 3ZM 40 0L 40 25L 46 25L 46 0L 40 0ZM 43 22L 0 22L 0 28L 43 28L 43 22ZM 3 25L 3 0L -3 0L -3 25L 3 25Z"/>
<path id="path12_stroke" d="M 0 0L 14.2127 0L 14.2127 -1L 0 -1L 0 0Z"/>
<path id="path13_stroke" d="M 0 0L 14.8661 0L 14.8661 -1L 0 -1L 0 0Z"/>
<path id="path14_fill" d="M 11 5.5C 11 8.53757 8.53757 11 5.5 11C 2.46243 11 0 8.53757 0 5.5C 0 2.46243 2.46243 0 5.5 0C 8.53757 0 11 2.46243 11 5.5Z"/>
<path id="path15_fill" d="M 82 0L 10 0L 0 26.5C 10 40 82 40 91.5 26.5L 82 0Z"/>
</defs>
</svg>
